# xmcd CD database file
#
# Track frame offsets:
#	150
#	5982
#	20565
#	24501
#	33492
#	51342
#	54005
#	62568
#	68293
#	70936
#	89417
#	92686
#	96338
#	110323
#	123952
#	127946
#	149888
#	161658
#	184078
#	192478
#	194842
#	200277
#	221072
#	225175
#	227173
#	234592
#	240558
#	247526
#	250423
#	253498
#	256615
#	267356
#	270664
#
# Disc length: 3665 seconds
#
# Revision: 0
# Processed by: cddbd v1.5.2PL0 Copyright (c) Steve Scherf et al.
# Submitted via: CDex 1.51
#
DISCID=d80e4f21
DTITLE=Mississipi john Hurt - the Guitar of Mississipi John Hurt Vol 2 disk 1
DYEAR=1900
DGENRE=Blues
TTITLE0=Introduction to Avalon Blues
TTITLE1=MJH's 1928 recording of Avalon Blues
TTITLE2=Tuning
TTITLE3=Teaching of chords fingerings for Avalon Blues
TTITLE4=Teaching of first twelves bars of 1st guitar break of Avalon Blues
TTITLE5=Plays first 12 bars of first guitar break of Avalon Blues
TTITLE6=Teaching from 13 bar of 1st guitar break of Avalon Blues
TTITLE7=Plays 1st guitar break slowly of Avalon Blues
TTITLE8=Plays ut to tempo 1st guitar break of Avalon Blues
TTITLE9=Teaching of 2nd guitar break of Avalon Blues
TTITLE10=Plays slowly 2nd guitar break of Avalon Blues
TTITLE11=Introduction to Sliding Delta
TTITLE12=MJH performs Sliding Delta
TTITLE13=Teaching of Sliding Delta
TTITLE14=Plays slowly Sliding Delta
TTITLE15=Teaching of variations for Sliding Delta
TTITLE16=Tuning to open D tuning (D A D F# A D)
TTITLE17=MJH perfoms If you don't want me
TTITLE18=Teaching of If you don't want me
TTITLE19=Plays slowly of If you don't want me
TTITLE20=Plays If you don't want me up to tempo
TTITLE21=MJH performs Payday
TTITLE22=Teaching of 1st 8 bars of guitar intro of Payday
TTITLE23=Plays 1st 8 bars of guitar intro of Payday
TTITLE24=Teaching from 9th bar of guitar intro of Payday
TTITLE25=Plays slowly intro of Payday
TTITLE26=Teaching of verse of Payday
TTITLE27=Plays verse of Payday
TTITLE28=Teaching of chorus of Payday
TTITLE29=Plays verse and chorus of Payday
TTITLE30=Teaching of 1st guitar break of Payday
TTITLE31=Plays 1st guitar break of Payday
TTITLE32=Closing thoughts
EXTD=
EXTT0=
EXTT1=
EXTT2=
EXTT3=
EXTT4=
EXTT5=
EXTT6=
EXTT7=
EXTT8=
EXTT9=
EXTT10=
EXTT11=
EXTT12=
EXTT13=
EXTT14=
EXTT15=
EXTT16=
EXTT17=
EXTT18=
EXTT19=
EXTT20=
EXTT21=
EXTT22=
EXTT23=
EXTT24=
EXTT25=
EXTT26=
EXTT27=
EXTT28=
EXTT29=
EXTT30=
EXTT31=
EXTT32=
PLAYORDER=
